<svg xmlns="http://www.w3.org/2000/svg" viewBox="0 0 1200 600" role="img" aria-label="Instrumenti un dārza tehnika">
<defs>
  <linearGradient id="bg" x1="0" y1="0" x2="1" y2="1"><stop offset="0" stop-color="#f7faf6"/><stop offset="1" stop-color="#e2f1e4"/></linearGradient>
  <linearGradient id="g" x1="0" y1="0" x2="1" y2="1"><stop stop-color="#2f8b49"/><stop offset="1" stop-color="#1f6d39"/></linearGradient>
</defs>
<rect width="1200" height="600" rx="36" fill="url(#bg)"/>
<circle cx="930" cy="110" r="230" fill="#cde6d1"/><circle cx="1100" cy="500" r="250" fill="#dbeadf"/>
<g transform="translate(590 74)">
  <rect x="170" y="290" width="255" height="105" rx="22" fill="#163047"/>
  <rect x="215" y="228" width="155" height="78" rx="18" fill="url(#g)"/>
  <circle cx="225" cy="410" r="44" fill="#21384a"/><circle cx="382" cy="410" r="44" fill="#21384a"/>
  <circle cx="225" cy="410" r="18" fill="#f7faf6"/><circle cx="382" cy="410" r="18" fill="#f7faf6"/>
  <path d="M105 112h175c34 0 60 26 60 58v38H166c-34 0-61-27-61-61v-35Z" fill="#163047"/>
  <path d="M278 132h102c25 0 46 20 46 46v12H278v-58Z" fill="#2f8b49"/>
  <rect x="168" y="196" width="54" height="118" rx="16" fill="#2f8b49" transform="rotate(8 195 255)"/>
  <rect x="64" y="127" width="58" height="32" rx="8" fill="#2f8b49"/>
  <path d="M392 90c30 0 56 20 64 49h-33c-6-12-17-19-31-19-20 0-36 16-36 36s16 36 36 36c14 0 25-7 31-19h33c-8 29-34 49-64 49-37 0-67-30-67-66s30-66 67-66Z" fill="#e7a928"/>
  <path d="M493 156h100" stroke="#e7a928" stroke-width="24" stroke-linecap="round"/>
  <path d="M590 156c55 0 105 32 130 83" fill="none" stroke="#163047" stroke-width="18" stroke-linecap="round"/>
  <path d="M710 232 760 338" stroke="#163047" stroke-width="18" stroke-linecap="round"/>
  <circle cx="777" cy="374" r="55" fill="#2f8b49"/><circle cx="777" cy="374" r="24" fill="#e9f3ea"/>
</g>
<g transform="translate(72 430)" opacity=".9">
  <path d="M40 80c55-72 126-76 187-15-57 24-118 34-187 15Z" fill="#2f8b49"/>
  <path d="M135 23c4 34-7 67-34 100" fill="none" stroke="#163047" stroke-width="8" stroke-linecap="round"/>
</g>
</svg>
